HIERARCHY
ROOT Hips
{
	OFFSET 0.000000 0.000000 0.000000
	CHANNELS 6 Xposition Yposition Zposition Zrotation Yrotation Xrotation 
	JOINT LHipJoint
	{
		OFFSET 0.000000 0.000000 0.000000
		CHANNELS 3 Zrotation Yrotation Xrotation
		JOINT LeftUpLeg
		{
			OFFSET 1.363060 -1.794630 0.839290
			CHANNELS 3 Zrotation Yrotation Xrotation
			JOINT LeftLeg
			{
				OFFSET 2.448110 -6.726130 0.000000
				CHANNELS 3 Zrotation Yrotation Xrotation
				JOINT LeftFoot
				{
					OFFSET 2.562200 -7.039590 0.000000
					CHANNELS 3 Zrotation Yrotation Xrotation
					JOINT LeftToeBase
					{
						OFFSET 0.157640 -0.433110 2.322550
						CHANNELS 3 Zrotation Yrotation Xrotation
						End Site
						{
							OFFSET 0.000000 0.000000 0.000000
						}
					}
				}
			}
		}
	}
	JOINT RHipJoint
	{
		OFFSET 0.000000 0.000000 0.000000
		CHANNELS 3 Zrotation Yrotation Xrotation
		JOINT RightUpLeg
		{
			OFFSET -1.305520 -1.794630 0.839290
			CHANNELS 3 Zrotation Yrotation Xrotation
			JOINT RightLeg
			{
				OFFSET -2.542530 -6.985550 0.000000
				CHANNELS 3 Zrotation Yrotation Xrotation
				JOINT RightFoot
				{
					OFFSET -2.568260 -7.056230 0.000000
					CHANNELS 3 Zrotation Yrotation Xrotation
					JOINT RightToeBase
					{
						OFFSET -0.164730 -0.452590 2.363150
						CHANNELS 3 Zrotation Yrotation Xrotation
						End Site
						{
							OFFSET 0.000000 0.000000 0.000000
						}
					}
				}
			}
		}
	}
	JOINT LowerBack
	{
		OFFSET 0.000000 0.000000 0.000000
		CHANNELS 3 Zrotation Yrotation Xrotation
		JOINT Spine
		{
			OFFSET 0.028270 2.035590 -0.193380
			CHANNELS 3 Zrotation Yrotation Xrotation
			JOINT Spine1
			{
				OFFSET 0.056720 2.048850 -0.042750
				CHANNELS 3 Zrotation Yrotation Xrotation
				JOINT Neck
				{
					OFFSET 0.000000 0.000000 0.000000
					CHANNELS 3 Zrotation Yrotation Xrotation
					JOINT Neck1
					{
						OFFSET -0.054170 1.746240 0.172020
						CHANNELS 3 Zrotation Yrotation Xrotation
						JOINT Head
						{
							OFFSET 0.104070 1.761360 -0.123970
							CHANNELS 3 Zrotation Yrotation Xrotation
							End Site
							{
								OFFSET 0.000000 0.000000 0.000000
							}
						}
					}
				}
				JOINT LeftShoulder
				{
					OFFSET 0.000000 0.000000 0.000000
					CHANNELS 3 Zrotation Yrotation Xrotation
					JOINT LeftArm
					{
						OFFSET 3.362410 1.200890 -0.311210
						CHANNELS 3 Zrotation Yrotation Xrotation
						JOINT LeftForeArm
						{
							OFFSET 4.983000 -0.000000 -0.000000
							CHANNELS 3 Zrotation Yrotation Xrotation
							JOINT LeftHand
							{
								OFFSET 3.483560 -0.000000 -0.000000
								CHANNELS 3 Zrotation Yrotation Xrotation
								JOINT LeftFingerBase
								{
									OFFSET 0.000000 0.000000 0.000000
									CHANNELS 3 Zrotation Yrotation Xrotation
									JOINT LeftHandIndex1
									{
										OFFSET 0.715260 -0.000000 -0.000000
										CHANNELS 3 Zrotation Yrotation Xrotation
										End Site
										{
											OFFSET 0.000000 0.000000 0.000000
										}
									}
								}
								JOINT LThumb
								{
									OFFSET 0.000000 0.000000 0.000000
									CHANNELS 3 Zrotation Yrotation Xrotation
									End Site
									{
										OFFSET 0.000000 0.000000 0.000000
									}
								}
							}
						}
					}
				}
				JOINT RightShoulder
				{
					OFFSET 0.000000 0.000000 0.000000
					CHANNELS 3 Zrotation Yrotation Xrotation
					JOINT RightArm
					{
						OFFSET -3.136600 1.374050 -0.404650
						CHANNELS 3 Zrotation Yrotation Xrotation
						JOINT RightForeArm
						{
							OFFSET -5.241900 -0.000000 -0.000000
							CHANNELS 3 Zrotation Yrotation Xrotation
							JOINT RightHand
							{
								OFFSET -3.444170 -0.000000 -0.000000
								CHANNELS 3 Zrotation Yrotation Xrotation
								JOINT RightFingerBase
								{
									OFFSET 0.000000 0.000000 0.000000
									CHANNELS 3 Zrotation Yrotation Xrotation
									JOINT RightHandIndex1
									{
										OFFSET -0.622530 -0.000000 -0.000000
										CHANNELS 3 Zrotation Yrotation Xrotation
										End Site
										{
											OFFSET 0.000000 0.000000 0.000000
										}
									}
								}
								JOINT RThumb
								{
									OFFSET 0.000000 0.000000 0.000000
									CHANNELS 3 Zrotation Yrotation Xrotation
									End Site
									{
										OFFSET 0.000000 0.000000 0.000000
									}
								}
							}
						}
					}
				}
			}
		}
	}
}
MOTION
Frames: 11
Frame Time: 0.008333
9.764432 17.335304 -34.897217 3.721943 9.204073 7.918929 -1.940860 3.955304 5.725697 -14.793715 9.076162 10.097693 -3.506876 -1.258619 4.286040 1.899999 -1.702953 20.747623 1.358500 -7.377700 -20.839200 0.585979 1.300828 -3.964023 9.114394 5.279194 -33.305388 2.230868 -9.445654 20.464352 -0.312515 -6.979248 20.397492 -1.205400 6.965300 -19.612700 -5.566229 -5.544094 -5.574411 1.453695 -6.729031 -5.361303 6.740127 -4.531420 7.842911 -9.951538 -1.929102 -19.707673 5.752610 -0.119596 9.864989 6.008900 -0.563700 12.240100 -0.194591 -8.197503 -0.463910 -73.511357 -31.535999 40.588578 27.076788 -33.839513 -11.305052 -0.179189 1.346819 -17.700951 22.410834 -25.487564 -10.483000 -7.125000 0.000000 0.000000 -4.704800 1.265700 4.615400 0.367642 7.284577 0.230726 76.136400 -13.469968 20.336231 -6.664878 13.255656 -1.901584 3.401865 1.205444 -2.255973 -26.764368 -15.704337 9.330300 7.125000 0.000000 0.000000 -2.373900 -48.765800 0.220600 
9.738129 17.333653 -34.638141 3.093201 9.310727 7.848373 -1.946704 4.188981 5.861584 -13.685195 9.148508 10.462923 -3.445143 -1.234341 4.256296 1.404495 0.451578 22.871676 1.128900 -6.748400 -18.972000 0.616275 1.152272 -3.847617 9.968620 5.373301 -33.219425 2.140345 -9.715951 21.201996 -0.312438 -7.234076 21.388038 -1.012900 6.403200 -17.959000 -5.096731 -5.633151 -5.308592 1.577153 -6.974240 -5.495807 7.254737 -4.630671 7.106459 -10.354788 -1.683943 -19.600270 5.988294 0.412843 10.111577 6.319000 -0.392600 12.527000 -0.126229 -8.208110 -0.623767 -74.600569 -29.586232 40.012264 27.653668 -34.538118 -11.759088 -0.152379 1.313627 -16.980703 22.457489 -25.783814 -10.597600 -7.125000 0.000000 0.000000 -4.708500 0.989800 4.642200 0.425306 7.354395 0.201105 75.716633 -13.799039 19.740817 -6.544360 13.030847 -1.924494 3.531811 1.273318 -1.811827 -27.489362 -16.706531 10.226000 7.125000 0.000000 0.000000 -3.100700 -50.087100 0.389200 
9.719969 17.337065 -34.367509 2.856604 9.497377 7.818582 -1.919072 4.373728 5.914990 -13.062406 9.187768 10.964468 -3.395081 -1.158448 4.181513 0.824849 2.993147 24.876827 0.799000 -5.705300 -15.931800 0.598822 1.033799 -3.725448 10.722478 4.791581 -33.224843 2.034651 -10.011249 22.124529 -0.553289 -6.617724 22.071857 -0.940200 6.176100 -17.296100 -4.908795 -5.757126 -5.421337 1.642129 -7.178506 -5.542446 7.490912 -4.727442 6.972634 -10.610092 -1.658918 -19.660822 5.996912 0.566979 10.188894 6.401300 -0.364100 12.637900 -0.104381 -8.154907 -0.713944 -75.398467 -28.013005 39.757419 28.107935 -35.133898 -12.122494 -0.144388 1.272290 -16.522609 22.462654 -26.056879 -10.687100 -7.125000 0.000000 0.000000 -4.725700 0.750500 4.679400 0.490759 7.324738 0.197787 75.392738 -13.679964 19.249472 -6.342516 12.753731 -1.858040 3.401527 1.549703 -1.531353 -25.062739 -18.418607 10.253800 7.125000 0.000000 0.000000 -0.181900 -51.889300 0.030900 
9.700599 17.352143 -34.099298 2.451033 9.553255 7.807361 -1.906311 4.573917 5.946145 -12.365994 9.419321 11.324222 -3.322685 -1.041784 4.107675 0.262690 5.695647 26.957424 0.739100 -5.492000 -15.317400 0.619737 0.917476 -3.619937 11.635002 4.496493 -33.183382 1.935044 -10.295729 23.007417 -0.657798 -6.098348 21.939006 -0.875400 5.965200 -16.683500 -4.443778 -5.728622 -5.753657 1.658502 -7.162168 -5.535098 7.386982 -4.712238 7.133188 -10.699454 -1.705190 -19.826041 5.940279 0.544524 10.254433 6.428100 -0.399700 12.742000 -0.121832 -8.129522 -0.735390 -75.296657 -27.217972 40.982473 28.337389 -35.433214 -12.240571 -0.209358 1.232152 -17.475884 22.716268 -25.981497 -10.807800 -7.125000 0.000000 0.000000 -4.530800 0.802100 4.481100 0.517064 7.286322 0.201343 75.412403 -13.221506 17.686535 -6.022215 12.346055 -1.829846 3.560796 1.391001 -0.009523 -26.391598 -18.385371 10.791400 7.125000 0.000000 0.000000 -1.701000 -52.004800 0.293400 
9.681119 17.364139 -33.835600 1.798318 9.337265 7.632312 -2.157039 4.275877 5.954388 -11.856279 9.108359 8.452351 -2.686639 1.408700 10.022820 0.170952 6.422611 27.681075 1.152500 -6.816100 -19.171800 0.747890 0.940566 -3.517061 12.670390 4.386827 -32.966134 1.814784 -10.529515 23.897969 -0.710190 -5.585164 21.594233 -0.700400 5.349300 -14.907600 -3.748984 -5.719319 -5.827923 1.721442 -7.258374 -5.557417 7.418430 -4.709455 7.078631 -10.819349 -1.481970 -19.899551 6.006467 0.922766 10.386318 6.572300 -0.262000 12.847000 -0.126102 -8.084983 -0.784187 -75.460666 -26.172497 41.369754 28.446114 -35.645929 -12.322012 -0.230710 1.207641 -17.671464 22.773409 -26.024190 -10.856400 -7.125000 0.000000 0.000000 -4.485800 0.765900 4.439100 0.586819 7.324813 0.209874 75.211365 -12.839687 16.678238 -5.753056 11.961483 -1.708762 3.417031 1.300937 1.800042 -24.305512 -18.104598 9.748800 7.125000 0.000000 0.000000 0.592800 -51.364300 -0.092900 
9.667582 17.382739 -33.577515 1.156781 9.107069 7.228271 -2.236465 4.013931 5.833080 -11.314066 8.898141 6.235364 -1.873613 3.539341 15.388061 0.017324 7.227973 28.138596 1.711400 -8.237000 -23.436400 0.841366 0.913104 -3.321529 13.720724 4.205105 -32.460633 1.725476 -10.668178 24.651350 -0.869283 -4.783834 21.417697 -0.408500 4.102900 -11.366200 -3.086971 -5.685380 -5.511218 1.806895 -7.326140 -5.591357 7.640280 -4.690570 6.789070 -11.082406 -1.351105 -19.826054 6.010393 1.225488 10.445125 6.668900 -0.176600 12.898000 -0.097103 -8.049904 -0.858370 -76.321188 -24.848552 41.090433 28.480034 -35.830401 -12.392224 -0.203034 1.199221 -16.867345 22.653032 -26.219659 -10.854200 -7.125000 0.000000 0.000000 -4.584300 0.604000 4.550400 0.662485 7.388414 0.236498 74.830535 -12.638085 16.204682 -5.564210 11.672344 -1.642105 3.366559 1.249890 2.574352 -23.436973 -17.888460 9.280000 7.125000 0.000000 0.000000 1.498500 -50.980400 -0.220800 
9.651513 17.411354 -33.325262 0.694417 8.819741 6.891240 -2.229456 3.851961 5.631980 -10.861270 9.544586 4.503131 -1.047362 5.086464 19.434561 -0.150772 8.176800 28.873956 1.991500 -8.848400 -25.322400 0.920785 0.850916 -3.121396 14.504944 4.323188 -31.792171 1.649041 -10.767320 25.264124 -0.983961 -4.032937 20.883858 -0.237300 3.135000 -8.654900 -2.607367 -5.495635 -5.294246 1.831331 -7.137852 -5.591993 7.696979 -4.552935 6.660410 -11.199270 -1.465913 -19.846751 5.887114 1.122874 10.440279 6.600900 -0.255200 12.974100 -0.070396 -8.018782 -0.911216 -77.032997 -23.590347 41.480117 28.539402 -36.037370 -12.454274 -0.191387 1.190681 -16.329852 22.661828 -26.520976 -10.962800 -7.125000 0.000000 0.000000 -4.614900 0.301200 4.605600 0.692484 7.426746 0.255234 74.748250 -12.332979 15.505000 -5.455550 11.504885 -1.675929 3.480058 1.352615 2.708704 -23.965572 -19.030381 10.105300 7.125000 0.000000 0.000000 1.118100 -52.415800 -0.204100 
9.629392 17.445362 -33.070259 0.437122 8.624162 6.760600 -2.203540 3.676443 5.391829 -10.637705 9.848625 2.905339 -0.151084 6.539849 23.090824 -0.577066 10.161446 29.735634 1.730100 -8.279800 -23.567100 1.003972 0.790070 -2.934156 14.975421 4.698739 -31.053585 1.574295 -10.817396 25.671838 -0.930784 -3.735676 19.852854 -0.206400 2.925500 -8.071300 -2.412451 -5.376465 -5.262522 1.843223 -7.020458 -5.615039 7.666944 -4.446263 6.538816 -10.964070 -1.410574 -19.882478 5.856800 1.127339 10.562192 6.488000 -0.247900 13.131900 -0.028802 -7.980343 -0.970401 -77.547197 -22.116358 41.852024 28.573747 -36.244316 -12.510735 -0.178185 1.187870 -15.784113 22.688221 -26.987279 -11.139500 -7.125000 0.000000 0.000000 -4.659800 -0.182000 4.690100 0.730083 7.463787 0.245104 74.859797 -12.067320 14.860535 -5.445853 11.427785 -1.704733 3.599278 1.187176 3.220716 -25.416843 -18.566378 10.462200 7.125000 0.000000 0.000000 -0.624900 -52.025000 0.108100 
9.609031 17.480580 -32.817236 0.081201 8.640502 6.594408 -2.140046 3.522329 5.133830 -10.294811 9.848268 1.436426 0.808314 7.894176 26.607170 -0.868339 11.952717 30.850573 1.081800 -6.610900 -18.567700 1.084470 0.710407 -2.718397 15.550077 4.896540 -30.236303 1.524744 -10.804132 25.914489 -0.839339 -3.596523 18.772578 -0.218700 3.010200 -8.307200 -2.129040 -5.350978 -5.124318 1.887306 -7.036540 -5.643194 7.720073 -4.399683 6.304233 -10.821515 -1.323345 -19.641215 5.745017 1.177930 10.525836 6.319100 -0.220000 13.028600 0.006456 -7.966764 -1.002084 -78.114116 -20.871633 42.181015 28.377788 -36.226701 -12.392805 -0.171331 1.185601 -15.300667 22.625267 -27.107912 -11.148700 -7.125000 0.000000 0.000000 -4.709800 -0.290100 4.749700 0.799182 7.513890 0.264621 74.866822 -11.769218 13.966805 -5.363897 11.235363 -1.673531 3.621230 0.876364 3.951158 -26.340075 -16.920809 9.867500 7.125000 0.000000 0.000000 -1.900500 -50.088100 0.238400 
9.588010 17.511727 -32.576650 -0.550210 8.716537 6.456349 -2.028839 3.376134 4.848614 -9.712980 9.768697 -0.125076 1.776024 9.108140 29.998820 -0.920544 12.988016 31.916914 0.745600 -5.515700 -15.385500 1.149985 0.644458 -2.504043 16.483109 4.831747 -29.556677 1.519329 -10.747793 26.059143 -0.848733 -3.208904 17.902919 -0.267900 3.329600 -9.197800 -1.445935 -5.275344 -5.056307 1.932659 -6.996497 -5.644468 7.649634 -4.321650 6.221507 -10.869439 -1.412920 -19.522436 5.564868 1.057499 10.334819 6.190600 -0.280100 12.856700 0.008792 -7.959698 -1.010972 -78.610444 -20.003035 42.742479 27.985077 -35.995453 -12.110933 -0.182633 1.174724 -15.003046 22.538868 -26.830452 -11.011100 -7.125000 0.000000 0.000000 -4.711200 0.023400 4.725300 0.837038 7.567229 0.298928 74.882567 -11.263732 13.001321 -5.274072 11.074541 -1.681263 3.674367 0.841017 4.215632 -26.746476 -17.038279 10.092000 7.125000 0.000000 0.000000 -2.349900 -50.262800 0.305000 
9.563247 17.543863 -32.343657 -1.140383 8.782367 6.338125 -1.897218 3.213779 4.526024 -9.220136 9.629220 -1.727933 2.815968 10.272289 33.294264 -1.083139 14.388276 32.741970 0.667900 -5.226200 -14.554900 1.221719 0.590576 -2.277212 17.380537 4.705048 -28.865695 1.547228 -10.631690 26.042411 -0.901275 -2.727205 17.068191 -0.298400 3.512700 -9.709500 -0.834163 -5.157994 -4.949245 1.950816 -6.885842 -5.656629 7.482550 -4.209734 6.094673 -10.806598 -1.490495 -19.551697 5.722588 0.940307 10.298581 6.319400 -0.309300 12.928100 -0.010896 -7.933024 -1.044010 -78.981241 -18.871644 43.374166 27.657971 -35.816936 -11.875472 -0.188693 1.161595 -14.657738 22.433968 -26.630277 -10.888200 -7.125000 0.000000 0.000000 -4.735900 0.264800 4.730100 0.805569 7.654053 0.296576 75.151013 -10.971377 13.109116 -5.365870 11.177367 -1.744026 3.703350 1.152295 3.576898 -26.076583 -19.041491 11.003900 7.125000 0.000000 0.000000 -1.331400 -52.642900 0.250500 
